<svg xmlns="http://www.w3.org/2000/svg" viewBox="-486 -175 3835 2108" width="1917.5" height="1054" xmlns:c2pa="http://c2pa.org/manifest"><metadata><c2pa:manifest>AAAWgmp1bWIAAAAeanVtZGMycGEAEQAQgAAAqgA4m3EDYzJwYQAAABZcanVtYgAAAEdqdW1kYzJtYQARABCAAACqADibcQN1cm46YzJwYTo2NDYzNDU5YS03MDcyLTRlOWUtYTM3NS1iZjdkMTk0YjYxNjYAAAADl2p1bWIAAAApanVtZGMyYXMAEQAQgAAAqgA4m3EDYzJwYS5hc3NlcnRpb25zAAAAALxqdW1iAAAARGp1bWRjYm9yABEAEIAAAKoAOJtxE2MycGEuaW5ncmVkaWVudC52MwAAAAAYYzJzaOuPeBq/1xUh1nISCq2ItWQAAABwY2JvcqNpZGM6Zm9ybWF0bWltYWdlL3N2Zyt4bWxqaW5zdGFuY2VJRHgseG1wOmlpZDozMzNjYmFjZC1jNjNiLTQ2YWEtYTQ3MC0zM2VhNjU5NzZhMmNscmVsYXRpb25zaGlwaHBhcmVudE9mAAAB4mp1bWIAAABBanVtZGNib3IAEQAQgAAAqgA4m3ETYzJwYS5hY3Rpb25zLnYyAAAAABhjMnNoqwhJVH4tMVXbw5Y8AdFlIAAAAZljYm9yomdhY3Rpb25zgqJmYWN0aW9ua2MycGEub3BlbmVkanBhcmFtZXRlcnOha2luZ3JlZGllbnRzgaJjdXJseC1zZWxmI2p1bWJmPWMycGEuYXNzZXJ0aW9ucy9jMnBhLmluZ3JlZGllbnQudjNkaGFzaFggdHs0ApgpdyY9nlY3pAPRLsXtc8eotpABVbLcgRHEyMKkZmFjdGlvbngdY29tLmFudGhyb3BpYy5jbGF1ZGUucHJvdmlkZWRqcGFyYW1ldGVyc6F4H2NvbS5hbnRocm9waWMub3JpZ2luLWNvbmZpZGVuY2VndW5rbm93bmtkZXNjcmlwdGlvbnhmQ2xhdWRlIHByb3ZpZGVkIHRoaXMgZmlsZSBhdCB0aGUgcmVxdWVzdCBvZiBhIHVzZXIgYW5kIG1heSBoYXZlIGNyZWF0ZWQgb3IgbW9kaWZpZWQgdGhlIGZpbGUgY29udGVudHMubXNvZnR3YXJlQWdlbnShZG5hbWVmQ2xhdWRlcmFsbEFjdGlvbnNJbmNsdWRlZPUAAADIanVtYgAAAEBqdW1kY2JvcgARABCAAACqADibcRNjMnBhLmhhc2guZGF0YQAAAAAYYzJzaPXnhFy0gmEtIFu0HgAH4GoAAACAY2JvcqVjYWxnZnNoYTI1NmNwYWRNAAAAAAAAAAAAAAAAAGRoYXNoWCAzBqKDSEypY1tdgqdGonJGBjyGVYiKOcZcW2sP79sY/mRuYW1lbmp1bWJmIG1hbmlmZXN0amV4Y2x1c2lvbnOBomVzdGFydBiiZmxlbmd0aBkeBAAAAj5qdW1iAAAAJ2p1bWRjMmNsABEAEIAAAKoAOJtxA2MycGEuY2xhaW0udjIAAAACD2Nib3KlY2FsZ2ZzaGEyNTZpc2lnbmF0dXJleE1zZWxmI2p1bWJmPS9jMnBhL3VybjpjMnBhOjY0NjM0NTlhLTcwNzItNGU5ZS1hMzc1LWJmN2QxOTRiNjE2Ni9jMnBhLnNpZ25hdHVyZWppbnN0YW5jZUlEeCx4bXA6aWlkOjQ3OGJjZDc1LWQwNjMtNDU2NS04MGY2LTcxNThkMjE0ODIwNnJjcmVhdGVkX2Fzc2VydGlvbnODomN1cmx4LXNlbGYjanVtYmY9YzJwYS5hc3NlcnRpb25zL2MycGEuaW5ncmVkaWVudC52M2RoYXNoWCB0ezQCmCl3Jj2eVjekA9Euxe1zx6i2kAFVstyBEcTIwqJjdXJseCpzZWxmI2p1bWJmPWMycGEuYXNzZXJ0aW9ucy9jMnBhLmFjdGlvbnMudjJkaGFzaFggRGMosbpUFFdNHgzWqKKbLfaGeArHANbHmtJmf7SnaVaiY3VybHgpc2VsZiNqdW1iZj1jMnBhLmFzc2VydGlvbnMvYzJwYS5oYXNoLmRhdGFkaGFzaFgg4CAzhQUNUHXETgwRl5yeVu09qxeZ7h8DxYoP9K7l/cZ0Y2xhaW1fZ2VuZXJhdG9yX2luZm+jZG5hbWVvQW50aHJvcGljIEZpbGVzZ3ZlcnNpb25lMS4wLjBrc3BlY1ZlcnNpb25lMi40LjAAABA4anVtYgAAAChqdW1kYzJjcwARABCAAACqADibcQNjMnBhLnNpZ25hdHVyZQAAABAIY2JvctKEWQISogEmGCFZAgowggIGMIIBjaADAgECAhRA5aAK7sI50L64g/oGQgU9Z1UTADAKBggqhkjOPQQDAzBJMRcwFQYDVQQKEw5BbnRocm9waWMsIFBCQzEuMCwGA1UEAxMlQW50aHJvcGljIENvbnRlbnQgQ3JlZGVudGlhbHMgUm9vdCBDQTAeFw0yNjA4MDcxODQzNTZaFw0yODA4MDYxOTQzNTZaMEQxFzAVBgNVBAoTDkFudGhyb3BpYywgUEJDMSkwJwYDVQQDEyBBbnRocm9waWMgQ2xhdWRlIENvbnRlbnQgU2lnbmluZzBZMBMGByqGSM49AgEGCCqGSM49AwEHA0IABJh6CmvLUBgFFNU0vUKlOVtE6djd17L5SuwX0LemFisBM3dkd/3cyjxFA3Qo5S46fX0/ihY0VZ7mfb9KF703t5OjWDBWMA4GA1UdDwEB/wQEAwIHgDAVBgNVHSUEDjAMBgorBgEEAYPoXgIBMAwGA1UdEwEB/wQCMAAwHwYDVR0jBBgwFoAUzlHiBIFOZFsj+OPEz5o+nMHXXMIwCgYIKoZIzj0EAwMDZwAwZAIwMXMdFJ4BetLLVY7ORuE9noqbbAZOZn/aArXyTwFAZfKrPzxF2vPoJNf1+UCdg1XGAjBwX1zd9WGqYkqmL5SFqw1QySjr1zJfpJM9+1rdDwSPLMOPOjKuiXjoU/pUUeG9RwmhY3BhZFkNngAAAAAAAAAAAAAAAAAAAAAAAAAAAAAAAAAAAAAAAAAAAAAAAAAAAAAAAAAAAAAAAAAAAAAAAAAAAAAAAAAAAAAAAAAAAAAAAAAAAAAAAAAAAAAAAAAAAAAAAAAAAAAAAAAAAAAAAAAAAAAAAAAAAAAAAAAAAAAAAAAAAAAAAAAAAAAAAAAAAAAAAAAAAAAAAAAAAAAAAAAAAAAAAAAAAAAAAAAAAAAAAAAAAAAAAAAAAAAAAAAAAAAAAAAAAAAAAAAAAAAAAAAAAAAAAAAAAAAAAAAAAAAAAAAAAAAAAAAAAAAAAAAAAAAAAAAAAAAAAAAAAAAAAAAAAAAAAAAAAAAAAAAAAAAAAAAAAAAAAAAAAAAAAAAAAAAAAAAAAAAAAAAAAAAAAAAAAAAAAAAAAAAAAAAAAAAAAAAAAAAAAAAAAAAAAAAAAAAAAAAAAAAAAAAAAAAAAAAAAAAAAAAAAAAAAAAAAAAAAAAAAAAAAAAAAAAAAAAAAAAAAAAAAAAAAAAAAAAAAAAAAAAAAAAAAAAAAAAAAAAAAAAAAAAAAAAAAAAAAAAAAAAAAAAAAAAAAAAAAAAAAAAAAAAAAAAAAAAAAAAAAAAAAAAAAAAAAAAAAAAAAAAAAAAAAAAAAAAAAAAAAAAAAAAAAAAAAAAAAAAAAAAAAAAAAAAAAAAAAAAAAAAAAAAAAAAAAAAAAAAAAAAAAAAAAAAAAAAAAAAAAAAAAAAAAAAAAAAAAAAAAAAAAAAAAAAAAAAAAAAAAAAAAAAAAAAAAAAAAAAAAAAAAAAAAAAAAAAAAAAAAAAAAAAAAAAAAAAAAAAAAAAAAAAAAAAAAAAAAAAAAAAAAAAAAAAAAAAAAAAAAAAAAAAAAAAAAAAAAAAAAAAAAAAAAAAAAAAAAAAAAAAAAAAAAAAAAAAAAAAAAAAAAAAAAAAAAAAAAAAAAAAAAAAAAAAAAAAAAAAAAAAAAAAAAAAAAAAAAAAAAAAAAAAAAAAAAAAAAAAAAAAAAAAAAAAAAAAAAAAAAAAAAAAAAAAAAAAAAAAAAAAAAAAAAAAAAAAAAAAAAAAAAAAAAAAAAAAAAAAAAAAAAAAAAAAAAAAAAAAAAAAAAAAAAAAAAAAAAAAAAAAAAAAAAAAAAAAAAAAAAAAAAAAAAAAAAAAAAAAAAAAAAAAAAAAAAAAAAAAAAAAAAAAAAAAAAAAAAAAAAAAAAAAAAAAAAAAAAAAAAAAAAAAAAAAAAAAAAAAAAAAAAAAAAAAAAAAAAAAAAAAAAAAAAAAAAAAAAAAAAAAAAAAAAAAAAAAAAAAAAAAAAAAAAAAAAAAAAAAAAAAAAAAAAAAAAAAAAAAAAAAAAAAAAAAAAAAAAAAAAAAAAAAAAAAAAAAAAAAAAAAAAAAAAAAAAAAAAAAAAAAAAAAAAAAAAAAAAAAAAAAAAAAAAAAAAAAAAAAAAAAAAAAAAAAAAAAAAAAAAAAAAAAAAAAAAAAAAAAAAAAAAAAAAAAAAAAAAAAAAAAAAAAAAAAAAAAAAAAAAAAAAAAAAAAAAAAAAAAAAAAAAAAAAAAAAAAAAAAAAAAAAAAAAAAAAAAAAAAAAAAAAAAAAAAAAAAAAAAAAAAAAAAAAAAAAAAAAAAAAAAAAAAAAAAAAAAAAAAAAAAAAAAAAAAAAAAAAAAAAAAAAAAAAAAAAAAAAAAAAAAAAAAAAAAAAAAAAAAAAAAAAAAAAAAAAAAAAAAAAAAAAAAAAAAAAAAAAAAAAAAAAAAAAAAAAAAAAAAAAAAAAAAAAAAAAAAAAAAAAAAAAAAAAAAAAAAAAAAAAAAAAAAAAAAAAAAAAAAAAAAAAAAAAAAAAAAAAAAAAAAAAAAAAAAAAAAAAAAAAAAAAAAAAAAAAAAAAAAAAAAAAAAAAAAAAAAAAAAAAAAAAAAAAAAAAAAAAAAAAAAAAAAAAAAAAAAAAAAAAAAAAAAAAAAAAAAAAAAAAAAAAAAAAAAAAAAAAAAAAAAAAAAAAAAAAAAAAAAAAAAAAAAAAAAAAAAAAAAAAAAAAAAAAAAAAAAAAAAAAAAAAAAAAAAAAAAAAAAAAAAAAAAAAAAAAAAAAAAAAAAAAAAAAAAAAAAAAAAAAAAAAAAAAAAAAAAAAAAAAAAAAAAAAAAAAAAAAAAAAAAAAAAAAAAAAAAAAAAAAAAAAAAAAAAAAAAAAAAAAAAAAAAAAAAAAAAAAAAAAAAAAAAAAAAAAAAAAAAAAAAAAAAAAAAAAAAAAAAAAAAAAAAAAAAAAAAAAAAAAAAAAAAAAAAAAAAAAAAAAAAAAAAAAAAAAAAAAAAAAAAAAAAAAAAAAAAAAAAAAAAAAAAAAAAAAAAAAAAAAAAAAAAAAAAAAAAAAAAAAAAAAAAAAAAAAAAAAAAAAAAAAAAAAAAAAAAAAAAAAAAAAAAAAAAAAAAAAAAAAAAAAAAAAAAAAAAAAAAAAAAAAAAAAAAAAAAAAAAAAAAAAAAAAAAAAAAAAAAAAAAAAAAAAAAAAAAAAAAAAAAAAAAAAAAAAAAAAAAAAAAAAAAAAAAAAAAAAAAAAAAAAAAAAAAAAAAAAAAAAAAAAAAAAAAAAAAAAAAAAAAAAAAAAAAAAAAAAAAAAAAAAAAAAAAAAAAAAAAAAAAAAAAAAAAAAAAAAAAAAAAAAAAAAAAAAAAAAAAAAAAAAAAAAAAAAAAAAAAAAAAAAAAAAAAAAAAAAAAAAAAAAAAAAAAAAAAAAAAAAAAAAAAAAAAAAAAAAAAAAAAAAAAAAAAAAAAAAAAAAAAAAAAAAAAAAAAAAAAAAAAAAAAAAAAAAAAAAAAAAAAAAAAAAAAAAAAAAAAAAAAAAAAAAAAAAAAAAAAAAAAAAAAAAAAAAAAAAAAAAAAAAAAAAAAAAAAAAAAAAAAAAAAAAAAAAAAAAAAAAAAAAAAAAAAAAAAAAAAAAAAAAAAAAAAAAAAAAAAAAAAAAAAAAAAAAAAAAAAAAAAAAAAAAAAAAAAAAAAAAAAAAAAAAAAAAAAAAAAAAAAAAAAAAAAAAAAAAAAAAAAAAAAAAAAAAAAAAAAAAAAAAAAAAAAAAAAAAAAAAAAAAAAAAAAAAAAAAAAAAAAAAAAAAAAAAAAAAAAAAAAAAAAAAAAAAAAAAAAAAAAAAAAAAAAAAAAAAAAAAAAAAAAAAAAAAAAAAAAAAAAAAAAAAAAAAAAAAAAAAAAAAAAAAAAAAAAAAAAAAAAAAAAAAAAAAAAAAAAAAAAAAAAAAAAAAAAAAAAAAAAAAAAAAAAAAAAAAAAAAAAAAAAAAAAAAAAAAAAAAAAAAAAAAAAAAAAAAAAAAAAAAAAAAAAAAAAAAAAAAAAAAAAAAAAAAAAAAAAAAAAAAAAAAAAAAAAAAAAAAAAAAAAAAAAAAAAAAAAAAAAAAAAAAAAAAAAAAAAAAAAAAAAAAAAAAAAAAAAAAAAAAAAAAAAAAAAAAAAAAAAAAAAAAAAAAAAAAAAAAAAAAAAAAAAAAAAAAAAAAAAAAAAAAAAAAAAAAAAAAAAAAAAAAAAAAAAAAAAAAAAAAAAAAAAAAAAAAAAAAAAAAAAAAAAAAAAAAAAAAAAAAAAAAAAAAAAAAAAAAAAAAAAAAAAAAAAAAAAAAAAAAAAAAAAAAAAAAAAAAAAAAAAAAAAAAAAAAAAAAAAAAAAAAAAAAAAAAAAAAAAAAAAAAAAAAAAAAAAAAAAAAAAAAAAAAAAAAAAAAAAAAAAAAAAAAAAAAAAAAAAAAAAAAAAAAAAAAAAAAAAAAAAAAAAAAAAAAAAAAAAAAAAAAAAAAAAAAAAAAAAAAAAAAAAAAAAAAAAAAAAAAAAAAAAAAAAAAAAAAAAAAAAAAAAAAAAAAAAAAAAAAAAAAAAAAAAAAAAAAAAAAAAAAAAAAAAAAAAAAAAAAAAAAAAAAAAAAAAAAAAAAAAAAAAAAAAAAAAAAAAAAAAAAAAAAAAAAAAAAAAAAAAAAAAAAAAAAAAAAAAAAAAAAAAAAAAAAAAAAAAAAAAAAAAAAAAAAAAAAAAAAAAAAAAAAAAAAAAAAAAAAAAAAAAAAAAAAAAAAAAAAAAAAAAAAAAAAAAAAAAAAAAAAAAAAAAAAAAAAAAAAAAAAAAAAAAAAAAAAAAAAAAAAAAAAAAAAAAAAAAAAAAAAAAAAAAAAAAAAAAAAAAAAAAAAAAAAAAAAAAAAAAAAAAAAAAAAAAAAAAAAAAAAAAAAAAAAAAAAAAAAAAAAAAAAAAAAAAAAAAAAAAAAAAAAAAAAAAAAAAAAAAAAAAAAAAAAAAAAAAAAAAAAAAAAAAAAAAAAAAAAAAAAAAAAAAAAAAAAAAAAAAAAAAAAAAAAAAAAAAAAAAAAAAAAAAAAAAAAAAAAAAAAAAAAAAAAAAAAAAAAAAAAAAAAAAAAAAAAAAAAAAAAAAAAAAAAAAAAAAAAAAAAAAAAAAAAAAAAAAAAAAAAAAAAAAAAAAAAAAAAAAAAAAAAAAAAAAAAAAAAAAAAAAAAAAAAAAAAAAAAAAAAAAAAAAAAAAAAAAAAAAAAAAAAAAAAAAAAAAAAAAAAAAAAAAAAAAAAAAAAAAAAAAAAAAAAAAAAAAAAAAAAAAAAAAAAAAAAAAAAAAAAAAAAAAAAAAAAAAAAAAAAAAAAAAAAAAAAAAAAAAAAAAAAAAAAAAAAAAAAPZYQMNMj8cIvETvJjfVbMYWQOi9VrBIBplnrzFMTK02AzbhSlPCy2F0gLU8FjMZjSzPeTNnhgND2Or7v/oMOPKd60k=</c2pa:manifest></metadata><title>opero</title><defs><clipPath id="lb"><rect x="-1000" y="-1000" width="8000" height="2000"></rect></clipPath><linearGradient id="w" gradientUnits="userSpaceOnUse" x1="0" y1="0" x2="0" y2="1000"><stop offset="0" stop-color="#5A5E68"></stop><stop offset="0.22" stop-color="#3E4350"></stop><stop offset="0.48" stop-color="#25272E"></stop><stop offset="0.78" stop-color="#33363F"></stop><stop offset="1" stop-color="#3E424C"></stop></linearGradient><radialGradient id="jb0" cx="0.30" cy="0.24" r="1.033"><stop offset="0" stop-color="#B2484E"></stop><stop offset="0.38" stop-color="#841C28"></stop><stop offset="0.72" stop-color="#6A0A1A"></stop><stop offset="1" stop-color="#4E040F"></stop></radialGradient><radialGradient id="jb1" cx="0.30" cy="0.24" r="1.033"><stop offset="0" stop-color="#7A59AC"></stop><stop offset="0.38" stop-color="#533180"></stop><stop offset="0.72" stop-color="#3E1C66"></stop><stop offset="1" stop-color="#2C1049"></stop></radialGradient><radialGradient id="jb2" cx="0.30" cy="0.24" r="1.033"><stop offset="0" stop-color="#BC8F42"></stop><stop offset="0.38" stop-color="#8F6512"></stop><stop offset="0.72" stop-color="#754E00"></stop><stop offset="1" stop-color="#553800"></stop></radialGradient><radialGradient id="jb3" cx="0.30" cy="0.24" r="1.033"><stop offset="0" stop-color="#41946E"></stop><stop offset="0.38" stop-color="#116947"></stop><stop offset="0.72" stop-color="#005130"></stop><stop offset="1" stop-color="#003A22"></stop></radialGradient><radialGradient id="jb4" cx="0.30" cy="0.24" r="1.033"><stop offset="0" stop-color="#3E89A0"></stop><stop offset="0.38" stop-color="#0C6076"></stop><stop offset="0.72" stop-color="#00485B"></stop><stop offset="1" stop-color="#003341"></stop></radialGradient><radialGradient id="jo" cx="0.30" cy="0.24" r="0.86"><stop offset="0.55" stop-color="#000" stop-opacity="0"></stop><stop offset="1" stop-color="#000" stop-opacity="0.3"></stop></radialGradient><radialGradient id="jr" cx="0.74" cy="0.82" r="0.40"><stop offset="0" stop-color="#fff" stop-opacity="0.10"></stop><stop offset="1" stop-color="#fff" stop-opacity="0"></stop></radialGradient><radialGradient id="js"><stop offset="0" stop-color="#fff" stop-opacity="0.52"></stop><stop offset="1" stop-color="#fff" stop-opacity="0"></stop></radialGradient></defs><path clip-path="url(#lb)" d="M327 920L327 920Q249 920 184.5 883Q120 846 82 782Q44 718 44 637L44 637Q44 555 82 491.5Q120 428 184 391.5Q248 355 327 355L327 355Q407 355 470.5 391.5Q534 428 571.5 491.5Q609 555 609 637L609 637Q609 719 571 783Q533 847 469 883.5Q405 920 327 920ZM327 815L327 815Q375 815 412 792Q449 769 470.5 728.5Q492 688 492 637L492 637Q492 586 470.5 546Q449 506 412 483Q375 460 327 460L327 460Q280 460 242.5 483Q205 506 183.5 546Q162 586 162 637L162 637Q162 688 183.5 728.5Q205 769 242.5 792Q280 815 327 815ZM810 1108L697 1108L697 637C697 481.3 821.5 355 975 355L986 355Q1063 355 1124.5 392Q1186 429 1221.5 493Q1257 557 1257 637L1257 637Q1257 717 1221.5 781Q1186 845 1125 882.5Q1064 920 986 920L986 920Q923 920 871.5 894Q820 868 792 819L792 819L810 798L810 1108ZM975 815L975 815Q1023 815 1060 792Q1097 769 1118.5 728.5Q1140 688 1140 637L1140 637Q1140 586 1118.5 546Q1097 506 1060 483Q1023 460 975 460L975 460Q928 460 890.5 483Q853 506 831.5 546Q810 586 810 637L810 637Q810 688 831.5 728.5Q853 769 890.5 792Q928 815 975 815ZM1599 920L1599 920Q1518 920 1455.5 882.5Q1393 845 1358 780.5Q1323 716 1323 636L1323 636Q1323 554 1358.5 491Q1394 428 1454 391.5Q1514 355 1590 355L1590 355Q1651 355 1699 376Q1747 397 1780 433.5Q1813 470 1830.5 517Q1848 564 1848 617L1848 617Q1848 624 1847.3 631.5C1846.2 652.5 1830 670 1809 670L1412 670L1412 580L1779 580L1725 621Q1735 572 1718.5 533.5Q1702 495 1668.5 472.5Q1635 450 1590 450L1590 450Q1545 450 1510 472.5Q1475 495 1456 536.5Q1437 578 1441 637L1441 637Q1436 692 1456.5 733Q1477 774 1514.5 797Q1552 820 1600 820L1600 820Q1649 820 1683.5 798Q1718 776 1738 741L1738 741L1830 786Q1814 824 1780.5 854.5Q1747 885 1700.5 902.5Q1654 920 1599 920ZM2049 908L1936 908L1936 596C1936 465.7 2042.6 360 2174 360L2221 360L2221 463L2174 463C2105 463 2049 522.5 2049 596ZM2537 920L2537 920Q2459 920 2394.5 883Q2330 846 2292 782Q2254 718 2254 637L2254 637Q2254 555 2292 491.5Q2330 428 2394 391.5Q2458 355 2537 355L2537 355Q2617 355 2680.5 391.5Q2744 428 2781.5 491.5Q2819 555 2819 637L2819 637Q2819 719 2781 783Q2743 847 2679 883.5Q2615 920 2537 920ZM2537 815L2537 815Q2585 815 2622 792Q2659 769 2680.5 728.5Q2702 688 2702 637L2702 637Q2702 586 2680.5 546Q2659 506 2622 483Q2585 460 2537 460L2537 460Q2490 460 2452.5 483Q2415 506 2393.5 546Q2372 586 2372 637L2372 637Q2372 688 2393.5 728.5Q2415 769 2452.5 792Q2490 815 2537 815Z" fill="url(#w)"></path><circle cx="184" cy="1308" r="95" fill="url(#jb0)"></circle><circle cx="184" cy="1308" r="95" fill="url(#jo)"></circle><circle cx="184" cy="1308" r="95" fill="url(#jr)"></circle><circle cx="184" cy="1308" r="92.63" fill="none" stroke="#000" stroke-opacity="0.16" stroke-width="4.75"></circle><ellipse cx="151.7" cy="1263.35" rx="34.2" ry="29.45" fill="url(#js)"></ellipse><circle cx="147.9" cy="1262.4" r="11.4" fill="#fff" fill-opacity="0.82"></circle><circle cx="604" cy="1308" r="95" fill="url(#jb1)"></circle><circle cx="604" cy="1308" r="95" fill="url(#jo)"></circle><circle cx="604" cy="1308" r="95" fill="url(#jr)"></circle><circle cx="604" cy="1308" r="92.63" fill="none" stroke="#000" stroke-opacity="0.16" stroke-width="4.75"></circle><ellipse cx="571.7" cy="1263.35" rx="34.2" ry="29.45" fill="url(#js)"></ellipse><circle cx="567.9" cy="1262.4" r="11.4" fill="#fff" fill-opacity="0.82"></circle><circle cx="1024" cy="1308" r="95" fill="url(#jb2)"></circle><circle cx="1024" cy="1308" r="95" fill="url(#jo)"></circle><circle cx="1024" cy="1308" r="95" fill="url(#jr)"></circle><circle cx="1024" cy="1308" r="92.63" fill="none" stroke="#000" stroke-opacity="0.16" stroke-width="4.75"></circle><ellipse cx="991.7" cy="1263.35" rx="34.2" ry="29.45" fill="url(#js)"></ellipse><circle cx="987.9" cy="1262.4" r="11.4" fill="#fff" fill-opacity="0.82"></circle><circle cx="1444" cy="1308" r="95" fill="url(#jb3)"></circle><circle cx="1444" cy="1308" r="95" fill="url(#jo)"></circle><circle cx="1444" cy="1308" r="95" fill="url(#jr)"></circle><circle cx="1444" cy="1308" r="92.63" fill="none" stroke="#000" stroke-opacity="0.16" stroke-width="4.75"></circle><ellipse cx="1411.7" cy="1263.35" rx="34.2" ry="29.45" fill="url(#js)"></ellipse><circle cx="1407.9" cy="1262.4" r="11.4" fill="#fff" fill-opacity="0.82"></circle><circle cx="1864" cy="1308" r="95" fill="url(#jb4)"></circle><circle cx="1864" cy="1308" r="95" fill="url(#jo)"></circle><circle cx="1864" cy="1308" r="95" fill="url(#jr)"></circle><circle cx="1864" cy="1308" r="92.63" fill="none" stroke="#000" stroke-opacity="0.16" stroke-width="4.75"></circle><ellipse cx="1831.7" cy="1263.35" rx="34.2" ry="29.45" fill="url(#js)"></ellipse><circle cx="1827.9" cy="1262.4" r="11.4" fill="#fff" fill-opacity="0.82"></circle></svg>